M48
METRIC,LZ,000.000
;FILE_FORMAT=3:3
;TYPE=PLATED
;Layer: PTH_Through
;EasyEDA v6.5.9, 2022-08-10 15:01:23
;3fe46a5b86454c6e811331f20d3da3e4,c5bfb2adc60a430b9219b9f832e462ad,10
;Gerber Generator version 0.2
;Holesize 1 = 0.712 mm
T01C0.712
;Holesize 2 = 0.762 mm
T02C0.762
;Holesize 3 = 0.915 mm
T03C0.915
;Holesize 4 = 0.966 mm
T04C0.966
;Holesize 5 = 1.200 mm
T05C1.200
;Holesize 6 = 1.301 mm
T06C1.301
%
G05
G90
T01
X053467Y088646
X053467Y086106
T02
X054610Y083134
X054610Y078156
T03
X092107Y051831
X092107Y054371
X092107Y056911
X092107Y059451
X052107Y051831
X052107Y054371
X052107Y056911
X052107Y059451
X018288Y087757
X018288Y085217
X018288Y082677
X018288Y080137
X018288Y077597
X018288Y075057
X018288Y072517
X018288Y069977
X018288Y067437
X018288Y064897
X018288Y062357
X018288Y059817
X018288Y057277
X018288Y054737
X018288Y052197
X043688Y052197
X043688Y054737
X043688Y057277
X043688Y059817
X043688Y062357
X043688Y064897
X043688Y067437
X043688Y069977
X043688Y072517
X043688Y075057
X043688Y077597
X043688Y080137
X043688Y082677
X043688Y085217
X043688Y087757
T04
X054483Y074676
X054483Y072136
T05
X100584Y082891
X100584Y077891
X100457Y052999
X100457Y057999
T06
X091440Y077534
X091440Y082614
X061976Y072136
X061976Y082550
X061976Y087630
M30
