G04 Layer: BottomLayer*
G04 EasyEDA v6.5.9, 2022-08-10 15:01:23*
G04 3fe46a5b86454c6e811331f20d3da3e4,c5bfb2adc60a430b9219b9f832e462ad,10*
G04 Gerber Generator version 0.2*
G04 Scale: 100 percent, Rotated: No, Reflected: No *
G04 Dimensions in millimeters *
G04 leading zeros omitted , absolute positions ,4 integer and 5 decimal *
%FSLAX45Y45*%
%MOMM*%

%ADD10C,1.0000*%
%ADD11C,1.2500*%
%ADD12C,1.8000*%
%ADD13C,1.5000*%
%ADD14C,1.1938*%
%ADD15C,1.6510*%
%ADD16C,1.1608*%
%ADD17C,1.5240*%
%ADD18C,2.0000*%
%ADD19C,3.0000*%

%LPD*%
D10*
X9210802Y5691123D02*
G01*
X9812274Y5691123D01*
X9812274Y5691123D01*
X9812274Y5691123D01*
X10009124Y5691123D01*
X10045700Y5727700D01*
X10045700Y5799836D01*
X5210809Y5183123D02*
G01*
X5564124Y5183123D01*
X5600191Y5219192D01*
X5613400Y5232400D01*
X5613400Y6705600D01*
X5562600Y6756400D01*
X4953000Y6756400D01*
X4902200Y6807200D01*
X4902200Y7454900D01*
X4851400Y7505700D01*
X4368800Y7505700D01*
X5210809Y5945123D02*
G01*
X5210809Y6371589D01*
X5156200Y6426200D01*
X4686300Y6426200D01*
X4648200Y6464300D01*
X4648200Y7175500D01*
X4572000Y7251700D01*
X4368800Y7251700D01*
X5210809Y5691123D02*
G01*
X4799075Y5691123D01*
X4749800Y5740400D01*
X4749800Y6159500D01*
X4673600Y6235700D01*
X4368800Y6235700D01*
D11*
X9210802Y5183123D02*
G01*
X9210802Y4537202D01*
X9208515Y4534915D01*
X9208515Y4534915D01*
X9208515Y4534915D01*
X9105900Y4432300D01*
X3949700Y4432300D01*
X3886200Y4495800D01*
X3886200Y5422900D01*
X3937000Y5473700D01*
X4013200Y5473700D01*
D12*
X9144000Y7753350D02*
G01*
X10022636Y7753350D01*
X10058387Y7789100D01*
X9144000Y8261350D02*
G01*
X10030637Y8261350D01*
X10058387Y8289099D01*
D11*
X9210802Y5945123D02*
G01*
X8878824Y5945123D01*
X8826500Y5892800D01*
X8826500Y4927600D01*
X8775700Y4876800D01*
X4419600Y4876800D01*
X4356100Y4940300D01*
X4356100Y5207000D01*
X4368800Y5219700D01*
D10*
X5210708Y5437098D02*
G01*
X5210708Y5691098D01*
D11*
X5461000Y7815579D02*
G01*
X5461000Y7467600D01*
X5448300Y7467600D01*
X5448300Y7213600D02*
G01*
X5283200Y7213600D01*
X5194300Y7302500D01*
X5194300Y7588250D01*
X5194300Y7588250D01*
X5194300Y7971028D01*
X5194300Y8238236D01*
X5194300Y8547100D01*
X5257800Y8610600D01*
X5346700Y8610600D01*
X1828800Y5473700D02*
G01*
X1638300Y5473700D01*
X1600200Y5435600D01*
X1600200Y4762500D01*
X1651000Y4711700D01*
X2895600Y4711700D01*
X2946400Y4762500D01*
X2946400Y8902700D01*
X3022600Y8978900D01*
X4817109Y8978900D01*
X4817109Y8978900D01*
X4991100Y8978900D01*
X5054600Y8915400D01*
X5054600Y8661400D01*
X5105400Y8610600D01*
X5346700Y8610600D01*
D13*
X5346700Y8864600D02*
G01*
X5346700Y9245600D01*
X5270500Y9321800D01*
X2514600Y9321800D01*
X2463800Y9271000D01*
X2463800Y5283200D01*
X2400300Y5219700D01*
X1828800Y5219700D01*
X6197600Y8763000D02*
G01*
X6197600Y8890000D01*
X6108700Y8978900D01*
X5870702Y8978900D01*
X5870702Y8978900D01*
X5384800Y8978900D01*
X5346700Y8940800D01*
X5346700Y8864600D01*
D11*
X4013200Y5473700D02*
G01*
X4368800Y5473700D01*
X5461000Y8313420D02*
G01*
X5933186Y8313420D01*
X5933186Y8313420D01*
X6197600Y8313420D01*
X6197600Y8255000D01*
X5448300Y7213600D02*
G01*
X6197600Y7213600D01*
D10*
X9210802Y5437123D02*
G01*
X9768077Y5437123D01*
X9903459Y5437123D01*
X9903459Y5437123D01*
X9993375Y5437123D01*
X10045700Y5384800D01*
X10045700Y5299963D01*
D14*
G01*
X5346700Y8864600D03*
G01*
X5346700Y8610600D03*
D15*
G01*
X5448300Y7467600D03*
G01*
X5448300Y7213600D03*
D16*
G01*
X5461000Y8313420D03*
G01*
X5461000Y7815579D03*
D17*
G01*
X1828800Y8775725D03*
G01*
X1828825Y8521674D03*
G01*
X1828825Y8267674D03*
G01*
X1828825Y8013674D03*
G01*
X1828825Y7759674D03*
G01*
X1828825Y7505674D03*
G01*
X1828825Y7251674D03*
G01*
X1828825Y6997674D03*
G01*
X1828825Y6743674D03*
G01*
X1828825Y6489674D03*
G01*
X1828825Y6235674D03*
G01*
X1828825Y5981674D03*
G01*
X1828825Y5727674D03*
G01*
X1828825Y5473674D03*
G01*
X1828825Y5219674D03*
G01*
X4368825Y5219674D03*
G01*
X4368825Y5473674D03*
G01*
X4368825Y5727674D03*
G01*
X4368825Y5981674D03*
G01*
X4368825Y6235674D03*
G01*
X4368825Y6489674D03*
G01*
X4368825Y6743674D03*
G01*
X4368825Y6997674D03*
G01*
X4368825Y7251674D03*
G01*
X4368825Y7505674D03*
G01*
X4368825Y7759674D03*
G01*
X4368825Y8013674D03*
G01*
X4368825Y8267674D03*
G01*
X4368825Y8521674D03*
G01*
X4368825Y8775674D03*
D18*
G01*
X9144000Y7753350D03*
G01*
X9144000Y8261350D03*
G01*
X6197600Y7213600D03*
G01*
X6197600Y8255000D03*
G01*
X6197600Y8763000D03*
D19*
G01*
X10058400Y8289086D03*
G01*
X10058400Y7789087D03*
G01*
X10045725Y5299887D03*
G01*
X10045725Y5799886D03*
D12*
X9210700Y5183098D02*
G01*
X9210700Y5183098D01*
X9210700Y5437098D02*
G01*
X9210700Y5437098D01*
X9210700Y5691098D02*
G01*
X9210700Y5691098D01*
X9210700Y5945098D02*
G01*
X9210700Y5945098D01*
X5210708Y5183098D02*
G01*
X5210708Y5183098D01*
X5210708Y5437098D02*
G01*
X5210708Y5437098D01*
X5210708Y5691098D02*
G01*
X5210708Y5691098D01*
X5210708Y5945098D02*
G01*
X5210708Y5945098D01*
M02*
