G04 Layer: TopLayer*
G04 EasyEDA v6.5.9, 2022-08-10 15:01:23*
G04 3fe46a5b86454c6e811331f20d3da3e4,c5bfb2adc60a430b9219b9f832e462ad,10*
G04 Gerber Generator version 0.2*
G04 Scale: 100 percent, Rotated: No, Reflected: No *
G04 Dimensions in millimeters *
G04 leading zeros omitted , absolute positions ,4 integer and 5 decimal *
%FSLAX45Y45*%
%MOMM*%

%ADD10C,1.1938*%
%ADD11C,1.6510*%
%ADD12C,1.1608*%
%ADD13C,1.5240*%
%ADD14C,2.0000*%
%ADD15C,3.0000*%
%ADD16C,1.8000*%

%LPD*%
D10*
G01*
X5346700Y8864600D03*
G01*
X5346700Y8610600D03*
D11*
G01*
X5448300Y7467600D03*
G01*
X5448300Y7213600D03*
D12*
G01*
X5461000Y8313420D03*
G01*
X5461000Y7815579D03*
D13*
G01*
X1828800Y8775725D03*
G01*
X1828825Y8521674D03*
G01*
X1828825Y8267674D03*
G01*
X1828825Y8013674D03*
G01*
X1828825Y7759674D03*
G01*
X1828825Y7505674D03*
G01*
X1828825Y7251674D03*
G01*
X1828825Y6997674D03*
G01*
X1828825Y6743674D03*
G01*
X1828825Y6489674D03*
G01*
X1828825Y6235674D03*
G01*
X1828825Y5981674D03*
G01*
X1828825Y5727674D03*
G01*
X1828825Y5473674D03*
G01*
X1828825Y5219674D03*
G01*
X4368825Y5219674D03*
G01*
X4368825Y5473674D03*
G01*
X4368825Y5727674D03*
G01*
X4368825Y5981674D03*
G01*
X4368825Y6235674D03*
G01*
X4368825Y6489674D03*
G01*
X4368825Y6743674D03*
G01*
X4368825Y6997674D03*
G01*
X4368825Y7251674D03*
G01*
X4368825Y7505674D03*
G01*
X4368825Y7759674D03*
G01*
X4368825Y8013674D03*
G01*
X4368825Y8267674D03*
G01*
X4368825Y8521674D03*
G01*
X4368825Y8775674D03*
D14*
G01*
X9144000Y7753350D03*
G01*
X9144000Y8261350D03*
G01*
X6197600Y7213600D03*
G01*
X6197600Y8255000D03*
G01*
X6197600Y8763000D03*
D15*
G01*
X10058400Y8289086D03*
G01*
X10058400Y7789087D03*
G01*
X10045725Y5299887D03*
G01*
X10045725Y5799886D03*
D16*
X9210700Y5183098D02*
G01*
X9210700Y5183098D01*
X9210700Y5437098D02*
G01*
X9210700Y5437098D01*
X9210700Y5691098D02*
G01*
X9210700Y5691098D01*
X9210700Y5945098D02*
G01*
X9210700Y5945098D01*
X5210708Y5183098D02*
G01*
X5210708Y5183098D01*
X5210708Y5437098D02*
G01*
X5210708Y5437098D01*
X5210708Y5691098D02*
G01*
X5210708Y5691098D01*
X5210708Y5945098D02*
G01*
X5210708Y5945098D01*
M02*
